<svg xmlns="http://www.w3.org/2000/svg" id="Layer_1" x="0" y="0" version="1.1" viewBox="0 0 269 49" xml:space="preserve"><defs/><style>.st0{fill:#0066ce}</style><path d="M24.1 36.4c1.5 0 3.3-.3 5-1 1.9-.7 3.4-1.6 5-1.6 3.4 0 5.2 4 5.2 6.6 0 2-1 3.7-3.4 5.1-3.2 2-8.2 2.8-12.4 2.8C10 48.3 0 39.2 0 24.3 0 8.3 11.4 0 23.8 0c4.5 0 9.2 1.1 12 2.8C38.3 4.3 39.3 6 39.3 8c0 2.5-1.7 6.6-5.3 6.6-1.6 0-3.3-.9-5.3-1.7-1.6-.6-3.3-1-5-1-5.7 0-10.5 4-10.5 12.1 0 8.6 5.4 12.3 11 12.3zM69.1 0C84.4 0 94 10.3 94 24.3S84 48.5 68.8 48.5C53.6 48.5 44 38.2 44 24.3 44 10.3 53.9 0 69 0zM69 37.2c7.1 0 11.7-4.7 11.7-13 0-8.1-4.6-12.9-11.7-12.9s-11.8 4.8-11.8 13 4.6 13 11.8 13zM114.3 40.8c0 2.3 0 4-.9 5.2s-2.5 2-5.3 2-4.3-.7-5.2-2-1-2.9-1-5.2V8.6c0-2.5 0-5.6 4.6-7 2.1-.7 5.2-1.2 10-1.2 4 0 8.4.3 12.4 2.2 5 2.3 8 6.5 8 12.7a14 14 0 01-7.4 13l10 13.1c2.3 3.1.8 6.6-5.4 6.6-4.7 0-6.5-2-8.8-5.4l-5-7.5a54 54 0 01-2.2-4h-3.8v9.7zm0-19.6h2c5.4 0 7.5-2 7.5-5.1 0-3.6-2.8-4.8-6.6-4.8-1.5 0-2.8.2-2.8.2v9.7zM169 40.8c0 2.3 0 4-1.1 5.2-1 1.3-2.7 2-5.5 2s-4.6-.7-5.6-2-1-2.9-1-5.2v-28h-6.2c-2.3 0-3.9 0-5.2-.9-1.3-.8-1.9-2.3-1.9-5s.7-4 2-4.9c1.2-1 2.8-1 5.1-1h25.5c2.3 0 3.9 0 5.2 1 1.3.9 2 2.4 2 5s-.7 4-2 5c-1.3.9-2.9.9-5.2.9H169v28zM201.5 17.9h6.7c2.3 0 4 0 5.2.8 1.3.9 2 2.2 2 4.7 0 2.4-.7 3.8-2 4.6-1.3.9-2.9.9-5.2.9h-6.7v7.7h10.8c2.3 0 3.9 0 5.1.8 1.3.9 2 2.3 2 4.7 0 2.4-.7 3.8-2 4.6-1.3.9-2.8.9-5.1.9H195c-4.4 0-6.1-1.7-6.1-6.1V7.2c0-4.5 1.7-6.1 6.1-6.1H211c2.3 0 3.9 0 5.1.8 1.3.9 2 2.3 2 4.7 0 2.4-.7 3.8-2 4.6-1.3.9-2.8.9-5.1.9h-9.5v5.8zM253 6c2-3.3 3.8-5.4 9.3-5.4 4.7 0 6 1.6 6 3.4 0 1.6-.8 2.9-2.2 4.7l-11.4 14.8 11.9 15.8c1.6 2.2 2.3 3.7 2.3 5 0 2.1-1.8 3.7-6.4 3.7-5.5 0-7.5-2.1-9.8-5.7L246.1 32l-6.5 10.5c-2.3 3.5-4.2 5.4-9.4 5.4-4.7 0-6-1.5-6-3.5 0-1.4.8-2.6 2.2-4.6l12-16-10.9-14.6c-1.6-2.1-2.4-3.6-2.4-5 0-2.1 2-3.6 6.5-3.6 5.5 0 7.5 2 9.7 5.6l5.8 9.1 5.8-9.3z" class="st0"/></svg>