<?xml version="1.0" encoding="UTF-8" standalone="no"?>
<!-- rainbow-stroke isometric cube -->

<svg
   width="160"
   height="160"
   viewBox="0 0 120 120"
   fill="none"
   version="1.1"
   id="svg6"
   sodipodi:docname="logo.svg"
   inkscape:version="1.4.2 (ebf0e940, 2025-05-08)"
   inkscape:export-filename="logo5.png"
   inkscape:export-xdpi="614.40002"
   inkscape:export-ydpi="614.40002"
   xmlns:inkscape="http://www.inkscape.org/namespaces/inkscape"
   xmlns:sodipodi="http://sodipodi.sourceforge.net/DTD/sodipodi-0.dtd"
   xmlns:xlink="http://www.w3.org/1999/xlink"
   xmlns="http://www.w3.org/2000/svg"
   xmlns:svg="http://www.w3.org/2000/svg">
  <sodipodi:namedview
     id="namedview6"
     pagecolor="#ffffff"
     bordercolor="#999999"
     borderopacity="1"
     inkscape:showpageshadow="2"
     inkscape:pageopacity="0"
     inkscape:pagecheckerboard="0"
     inkscape:deskcolor="#d1d1d1"
     inkscape:zoom="8.2643105"
     inkscape:cx="63.707674"
     inkscape:cy="75.081884"
     inkscape:window-width="2328"
     inkscape:window-height="1512"
     inkscape:window-x="292"
     inkscape:window-y="54"
     inkscape:window-maximized="0"
     inkscape:current-layer="path6" />
  <defs
     id="defs6">
    <linearGradient
       id="linearGradient17"
       inkscape:collect="always">
      <stop
         style="stop-color:#dc09cf;stop-opacity:1;"
         offset="0"
         id="stop16" />
      <stop
         style="stop-color:#b05573;stop-opacity:0;"
         offset="1"
         id="stop17" />
    </linearGradient>
    <linearGradient
       id="linearGradient15"
       inkscape:collect="always">
      <stop
         style="stop-color:#ffdb00;stop-opacity:1;"
         offset="0"
         id="stop14" />
      <stop
         style="stop-color:#ff3b0a;stop-opacity:0.24786325;"
         offset="1"
         id="stop15" />
    </linearGradient>
    <linearGradient
       id="linearGradient13"
       inkscape:collect="always">
      <stop
         style="stop-color:#0071cf;stop-opacity:1;"
         offset="0"
         id="stop12" />
      <stop
         style="stop-color:#1f4183;stop-opacity:0;"
         offset="1"
         id="stop13" />
    </linearGradient>
    <linearGradient
       id="linearGradient8"
       inkscape:collect="always">
      <stop
         style="stop-color:#00cb00;stop-opacity:1;"
         offset="0"
         id="stop7" />
      <stop
         style="stop-color:#119411;stop-opacity:0;"
         offset="1"
         id="stop8" />
    </linearGradient>
    <linearGradient
       id="linearGradient44"
       inkscape:collect="always">
      <stop
         style="stop-color:#e6e3de;stop-opacity:1;"
         offset="0"
         id="stop44" />
      <stop
         style="stop-color:#ffffff;stop-opacity:1;"
         offset="1"
         id="stop45" />
    </linearGradient>
    <linearGradient
       id="linearGradient42"
       inkscape:collect="always">
      <stop
         style="stop-color:#efefef;stop-opacity:1;"
         offset="0"
         id="stop42" />
      <stop
         style="stop-color:#cbcbcb;stop-opacity:1;"
         offset="1"
         id="stop43" />
    </linearGradient>
    <linearGradient
       id="linearGradient27"
       inkscape:collect="always">
      <stop
         style="stop-color:#dc0923;stop-opacity:1;"
         offset="0"
         id="stop27" />
      <stop
         style="stop-color:#ff3b3b;stop-opacity:0;"
         offset="1"
         id="stop28" />
    </linearGradient>
    <!-- diagonal rainbow gradient -->
    <linearGradient
       id="rainbowGradient"
       x1="0"
       y1="0"
       x2="120"
       y2="120"
       gradientUnits="userSpaceOnUse">
      <stop
         offset="0%"
         stop-color="#FF5252"
         id="stop1" />
      <!-- red -->
      <stop
         offset="0.24165528"
         stop-color="#FF8A00"
         id="stop2" />
      <!-- orange -->
      <stop
         offset="0.40978113"
         stop-color="#FFEB3B"
         id="stop3" />
      <!-- yellow -->
      <stop
         offset="0.58618331"
         stop-color="#4CAF50"
         id="stop4" />
      <!-- green -->
      <stop
         offset="0.65212035"
         stop-color="#00BCD4"
         id="stop5" />
      <!-- cyan -->
      <stop
         offset="85%"
         stop-color="#3F51B5"
         id="stop6" />
      <!-- blue -->
    </linearGradient>
    <inkscape:path-effect
       effect="fill_between_many"
       method="originald"
       linkedpaths="#path6,0,1|"
       id="path-effect8" />
    <radialGradient
       inkscape:collect="always"
       xlink:href="#linearGradient27"
       id="radialGradient28"
       cx="33.70953"
       cy="38.313526"
       fx="33.70953"
       fy="38.313526"
       r="45"
       gradientTransform="matrix(0.87026317,1.3955494,-0.76670173,0.47811443,19.437144,-32.462693)"
       gradientUnits="userSpaceOnUse" />
    <linearGradient
       inkscape:collect="always"
       xlink:href="#linearGradient42"
       id="linearGradient43"
       x1="66.391479"
       y1="57.614174"
       x2="96.537254"
       y2="78.527634"
       gradientUnits="userSpaceOnUse" />
    <linearGradient
       inkscape:collect="always"
       xlink:href="#linearGradient44"
       id="linearGradient45"
       x1="23.510643"
       y1="78.756348"
       x2="53.487442"
       y2="58.996727"
       gradientUnits="userSpaceOnUse" />
    <radialGradient
       inkscape:collect="always"
       xlink:href="#linearGradient8"
       id="radialGradient3"
       gradientUnits="userSpaceOnUse"
       gradientTransform="matrix(0.09052094,-1.4344099,1.2750722,0.08046563,1.360529,95.470513)"
       cx="-2.8681297"
       cy="75.773003"
       fx="-2.8681297"
       fy="75.773003"
       r="45" />
    <radialGradient
       inkscape:collect="always"
       xlink:href="#linearGradient13"
       id="radialGradient12"
       gradientUnits="userSpaceOnUse"
       gradientTransform="matrix(-1.3618555,0.2335169,-0.26591062,-1.5507736,128.77009,4.0627148)"
       cx="38.53928"
       cy="-2.784447"
       fx="38.53928"
       fy="-2.784447"
       r="45" />
    <radialGradient
       inkscape:collect="always"
       xlink:href="#linearGradient15"
       id="radialGradient13"
       gradientUnits="userSpaceOnUse"
       gradientTransform="matrix(1.7077934,-0.13951555,0.15196623,1.8601999,-111.04397,-6.2655021)"
       cx="74.236084"
       cy="60.527836"
       fx="74.236084"
       fy="60.527836"
       r="45" />
    <radialGradient
       inkscape:collect="always"
       xlink:href="#linearGradient17"
       id="radialGradient15"
       gradientUnits="userSpaceOnUse"
       gradientTransform="matrix(9.7161145e-4,1.0864964,-0.83791592,7.4933105e-4,74.217472,-7.7044334)"
       cx="57.322014"
       cy="17.076784"
       fx="57.322014"
       fy="17.076784"
       r="45" />
  </defs>
  <!-- outer edges -->
  <g
     id="path6"
     style="display:inline;opacity:1;mix-blend-mode:darken;fill:none;stroke:none;stroke-width:0.99975;stroke-dasharray:none;stroke-opacity:1"
     transform="translate(-4.3269231,-1.875)">
    <path
       style="display:none;opacity:1;fill:url(#linearGradient43);fill-opacity:1;stroke:none;stroke-width:0.99975;stroke-dasharray:none;stroke-opacity:1"
       d="M 95.094956,38.794134 64.804949,57.661645 65.008923,100.08805 94.992969,77.549024 Z"
       id="path37"
       sodipodi:nodetypes="ccccc"
       inkscape:label="right"
       sodipodi:insensitive="true" />
    <path
       style="display:none;opacity:1;fill:#f3f3f3;fill-opacity:1;stroke:none;stroke-width:0.99975;stroke-dasharray:none;stroke-opacity:1"
       d="M 30.027535,30.533221 59.807609,15.337225 90.097615,30.533221 60.113569,49.196762 Z"
       id="path38"
       sodipodi:nodetypes="ccccc"
       inkscape:label="top"
       sodipodi:insensitive="true" />
    <path
       style="display:none;opacity:1;fill:url(#linearGradient45);fill-opacity:1;stroke:none;stroke-width:0.99975;stroke-dasharray:none;stroke-opacity:1"
       d="M 24.520261,38.284201 55.116227,57.865618 55.218214,100.19003 24.826221,78.160944 Z"
       id="path36"
       sodipodi:nodetypes="ccccc"
       inkscape:label="left"
       sodipodi:insensitive="true" />
    <path
       style="display:inline;opacity:1;mix-blend-mode:darken;fill:url(#radialGradient28);stroke:none;stroke-width:0.99975;stroke-dasharray:none;stroke-opacity:1;baseline-shift:baseline;overflow:visible;stroke-linecap:round;stroke-linejoin:round;enable-background:accumulate;stop-color:#000000;stop-opacity:1"
       d="M 57.121961,5.9123705 17.635329,25.655686 c -2.252835,1.157131 -2.532884,1.318766 -2.506987,4.215972 l 0.06417,49.935829 c 0.06425,2.343821 0.227664,2.349793 2.128343,3.807486 L 57,113.61497 c 2.82616,2.00071 2.981326,2.00071 6,0.19251 l 40.12834,-29.935822 c 1.51566,-1.26518 1.55072,-1.399494 1.48663,-3.486631 l 0.0642,-49.229947 c -0.028,-3.046297 0.0378,-3.400722 -2.82785,-5.050196 L 62.621355,5.9765416 C 59.865963,4.8876014 59.941523,4.8876014 57.121961,5.9123705 Z M 60,15.589844 89.789062,30.484375 60,49.103516 30.210937,30.484375 Z m -35,23.43164 30,18.75 V 100 L 25,77.5 Z m 70,0 V 77.5 L 65,100 V 57.771484 Z"
       id="path14"
       inkscape:label="red"
       sodipodi:nodetypes="cccccccccccccccccccccccccccc" />
    <path
       style="baseline-shift:baseline;display:inline;overflow:visible;opacity:1;mix-blend-mode:normal;fill:url(#radialGradient13);stroke:none;stroke-width:0.99975;stroke-linecap:round;stroke-linejoin:round;stroke-dasharray:none;stroke-opacity:1;enable-background:accumulate;stop-color:#000000;stop-opacity:1"
       d="M 57.121961,5.9123705 17.635329,25.655686 c -2.252835,1.157131 -2.532884,1.318766 -2.506987,4.215972 l 0.06417,49.935829 c 0.06425,2.343821 0.227664,2.349793 2.128343,3.807486 L 57,113.61497 c 2.82616,2.00071 2.981326,2.00071 6,0.19251 l 40.12834,-29.935822 c 1.51566,-1.26518 1.55072,-1.399494 1.48663,-3.486631 l 0.0642,-49.229947 c -0.028,-3.046297 0.0378,-3.400722 -2.82785,-5.050196 L 62.621355,5.9765416 C 59.865963,4.8876014 59.941523,4.8876014 57.121961,5.9123705 Z M 60,15.589844 89.789062,30.484375 60,49.103516 30.210937,30.484375 Z m -35,23.43164 30,18.75 V 100 L 25,77.5 Z m 70,0 V 77.5 L 65,100 V 57.771484 Z"
       id="path8"
       inkscape:label="gold"
       sodipodi:nodetypes="cccccccccccccccccccccccccccc" />
    <path
       style="baseline-shift:baseline;display:inline;overflow:visible;opacity:1;mix-blend-mode:normal;fill:url(#radialGradient3);stroke:none;stroke-width:0.99975;stroke-linecap:round;stroke-linejoin:round;stroke-dasharray:none;stroke-opacity:1;enable-background:accumulate;stop-color:#000000;stop-opacity:1"
       d="M 57.121961,5.9123705 17.635329,25.655686 c -2.252835,1.157131 -2.532884,1.318766 -2.506987,4.215972 l 0.06417,49.935829 c 0.06425,2.343821 0.227664,2.349793 2.128343,3.807486 L 57,113.61497 c 2.82616,2.00071 2.981326,2.00071 6,0.19251 l 40.12834,-29.935822 c 1.51566,-1.26518 1.55072,-1.399494 1.48663,-3.486631 l 0.0642,-49.229947 c -0.028,-3.046297 0.0378,-3.400722 -2.82785,-5.050196 L 62.621355,5.9765416 C 59.865963,4.8876014 59.941523,4.8876014 57.121961,5.9123705 Z M 60,15.589844 89.789062,30.484375 60,49.103516 30.210937,30.484375 Z m -35,23.43164 30,18.75 V 100 L 25,77.5 Z m 70,0 V 77.5 L 65,100 V 57.771484 Z"
       id="path3"
       inkscape:label="green"
       sodipodi:nodetypes="cccccccccccccccccccccccccccc" />
    <path
       style="baseline-shift:baseline;display:inline;overflow:visible;opacity:1;mix-blend-mode:normal;fill:url(#radialGradient12);stroke:none;stroke-width:0.99975;stroke-linecap:round;stroke-linejoin:round;stroke-dasharray:none;stroke-opacity:1;enable-background:accumulate;stop-color:#000000;stop-opacity:1"
       d="M 57.121961,5.9123705 17.635329,25.655686 c -2.252835,1.157131 -2.532884,1.318766 -2.506987,4.215972 l 0.06417,49.935829 c 0.06425,2.343821 0.227664,2.349793 2.128343,3.807486 L 57,113.61497 c 2.82616,2.00071 2.981326,2.00071 6,0.19251 l 40.12834,-29.935822 c 1.51566,-1.26518 1.55072,-1.399494 1.48663,-3.486631 l 0.0642,-49.229947 c -0.028,-3.046297 0.0378,-3.400722 -2.82785,-5.050196 L 62.621355,5.9765416 C 59.865963,4.8876014 59.941523,4.8876014 57.121961,5.9123705 Z M 60,15.589844 89.789062,30.484375 60,49.103516 30.210937,30.484375 Z m -35,23.43164 30,18.75 V 100 L 25,77.5 Z m 70,0 V 77.5 L 65,100 V 57.771484 Z"
       id="path12"
       inkscape:label="blue "
       sodipodi:nodetypes="cccccccccccccccccccccccccccc" />
    <path
       style="baseline-shift:baseline;display:inline;overflow:visible;opacity:0.877;mix-blend-mode:overlay;fill:url(#radialGradient15);stroke:none;stroke-width:0.99975;stroke-linecap:round;stroke-linejoin:round;stroke-dasharray:none;stroke-opacity:1;enable-background:accumulate;stop-color:#000000;stop-opacity:1"
       d="M 57.121961,5.9123705 17.635329,25.655686 c -2.252835,1.157131 -2.532884,1.318766 -2.506987,4.215972 l 0.06417,49.935829 c 0.06425,2.343821 0.227664,2.349793 2.128343,3.807486 L 57,113.61497 c 2.82616,2.00071 2.981326,2.00071 6,0.19251 l 40.12834,-29.935822 c 1.51566,-1.26518 1.55072,-1.399494 1.48663,-3.486631 l 0.0642,-49.229947 c -0.028,-3.046297 0.0378,-3.400722 -2.82785,-5.050196 L 62.621355,5.9765416 C 59.865963,4.8876014 59.941523,4.8876014 57.121961,5.9123705 Z M 60,15.589844 89.789062,30.484375 60,49.103516 30.210937,30.484375 Z m -35,23.43164 30,18.75 V 100 L 25,77.5 Z m 70,0 V 77.5 L 65,100 V 57.771484 Z"
       id="path15"
       inkscape:label="center purple"
       sodipodi:nodetypes="cccccccccccccccccccccccccccc" />
  </g>
</svg>
