<svg xmlns="http://www.w3.org/2000/svg" viewBox="0 0 372 354" xml:space="preserve"><path fill="currentColor" d="M324 214c-.3 20.1.1 39.8-1.1 59.4a50.1 50.1 0 0 1-45.4 45.7c-5 .4-10 .8-15 .8-54.4.1-108.9.2-163.4 0a81 81 0 0 1-26-3.6c-23-8-33.6-25.8-34.9-49.6l-.2-8c0-54.5-.1-109 .2-163.4 0-8.7.6-18 3.4-26 8-23 25.7-33.8 49.6-35 2.3-.2 4.6-.3 7-.3 55.3 0 110.6-.1 165.9.2 8.4 0 17.1 1 25 3.6 22 7.3 34.2 25.8 34.7 51.8.4 23.4.2 47 .2 70.4v54m-146.4 49.3a86.7 86.7 0 1 0-83-83.5c2.4 46 36.8 81 83 83.5m-96.4 24.3c1.8.5 3.5 1.4 5.3 1.4l62.4.1a118.2 118.2 0 0 1-80.7-81c-.2 7.5-.3 15-.2 22.4.2 13.2.2 26.3.8 39.4.3 7.9 4.6 13.7 12.4 17.7M293 209.3c-12.8 41-40.3 67.3-81 80.5 8.2.2 16.2.3 24.2.2 13-.2 26-.3 38.9-1a16 16 0 0 0 14-8.4c2.4-5 4.4-10.9 4.5-16.4.7-17.8.4-35.6.4-53.4 0-.7-.5-1.5-1-1.5m-191.2-118a122.1 122.1 0 0 1 47-27c-9.4-.3-18.7-.4-28-.3-11.3.2-22.6.1-33.9 1A19 19 0 0 0 69 82.9c-.6 20.8-.2 41.7-.2 62a116.6 116.6 0 0 1 33-53.6M261.5 64h-48.1a120.5 120.5 0 0 1 80.3 81c.3-10.7.4-21.3.3-31.9-.2-10.1-.1-20.3-1-30.4a20 20 0 0 0-17.6-17.8c-4.3-.6-8.6-.6-14-.9z"/></svg>