<?xml version="1.0" encoding="utf-8"?>
<svg xmlns="http://www.w3.org/2000/svg">
<defs>
    <symbol id="bars" viewBox="0 0 32 32">
        <path fill="currentColor" d="M4,10h24c1.104,0,2-0.896,2-2s-0.896-2-2-2H4C2.896,6,2,6.896,2,8S2.896,10,4,10z M28,14H4c-1.104,0-2,0.896-2,2  s0.896,2,2,2h24c1.104,0,2-0.896,2-2S29.104,14,28,14z M28,22H4c-1.104,0-2,0.896-2,2s0.896,2,2,2h24c1.104,0,2-0.896,2-2  S29.104,22,28,22z"></path>
    </symbol>

    <symbol id="chevron-up" viewBox="0 0 448 512">
        <path fill="currentColor" d="M4.465 366.475l7.07 7.071c4.686 4.686 12.284 4.686 16.971 0L224 178.053l195.494 195.493c4.686 4.686 12.284 4.686 16.971 0l7.07-7.071c4.686-4.686 4.686-12.284 0-16.97l-211.05-211.051c-4.686-4.686-12.284-4.686-16.971 0L4.465 349.505c-4.687 4.686-4.687 12.284 0 16.97z"></path>
    </symbol>

    <symbol id="chevron-down" viewBox="0 0 448 512">
        <path fill="currentColor" d="M443.5 162.6l-7.1-7.1c-4.7-4.7-12.3-4.7-17 0L224 351 28.5 155.5c-4.7-4.7-12.3-4.7-17 0l-7.1 7.1c-4.7 4.7-4.7 12.3 0 17l211 211.1c4.7 4.7 12.3 4.7 17 0l211-211.1c4.8-4.7 4.8-12.3.1-17z">
        </path>
    </symbol>

    <symbol id="chevron-right" viewBox="0 0 256 512">
        <path fill="currentColor" d="M17.525 36.465l-7.071 7.07c-4.686 4.686-4.686 12.284 0 16.971L205.947 256 10.454 451.494c-4.686 4.686-4.686 12.284 0 16.971l7.071 7.07c4.686 4.686 12.284 4.686 16.97 0l211.051-211.05c4.686-4.686 4.686-12.284 0-16.971L34.495 36.465c-4.686-4.687-12.284-4.687-16.97 0z"></path>
    </symbol>

    <symbol id="back" viewBox="0 0 256 512">
        <path fill="currentColor" d="M238.475 475.535l7.071-7.07c4.686-4.686 4.686-12.284 0-16.971L50.053 256 245.546 60.506c4.686-4.686 4.686-12.284 0-16.971l-7.071-7.07c-4.686-4.686-12.284-4.686-16.97 0L10.454 247.515c-4.686 4.686-4.686 12.284 0 16.971l211.051 211.05c4.686 4.686 12.284 4.686 16.97-.001z"></path>
    </symbol>

    <symbol id="gitter" viewBox="0 0 384 512">
        <path fill="currentColor" d="M66.4 322.5H16V0h50.4v322.5zM166.9 76.1h-50.4V512h50.4V76.1zm100.6 0h-50.4V512h50.4V76.1zM368 76h-50.4v247H368V76z"></path>
    </symbol>

    <symbol id="github" viewBox="0 0 580 400">
        <path fill="currentColor" d="M165.9 397.4c0 2-2.3 3.6-5.2 3.6-3.3.3-5.6-1.3-5.6-3.6 0-2 2.3-3.6 5.2-3.6 3-.3 5.6 1.3 5.6 3.6zm-31.1-4.5c-.7 2 1.3 4.3 4.3 4.9 2.6 1 5.6 0 6.2-2s-1.3-4.3-4.3-5.2c-2.6-.7-5.5.3-6.2 2.3zm44.2-1.7c-2.9.7-4.9 2.6-4.6 4.9.3 2 2.9 3.3 5.9 2.6 2.9-.7 4.9-2.6 4.6-4.6-.3-1.9-3-3.2-5.9-2.9zM244.8 8C106.1 8 0 113.3 0 252c0 110.9 69.8 205.8 169.5 239.2 12.8 2.3 17.3-5.6 17.3-12.1 0-6.2-.3-40.4-.3-61.4 0 0-70 15-84.7-29.8 0 0-11.4-29.1-27.8-36.6 0 0-22.9-15.7 1.6-15.4 0 0 24.9 2 38.6 25.8 21.9 38.6 58.6 27.5 72.9 20.9 2.3-16 8.8-27.1 16-33.7-55.9-6.2-112.3-14.3-112.3-110.5 0-27.5 7.6-41.3 23.6-58.9-2.6-6.5-11.1-33.3 2.6-67.9 20.9-6.5 69 27 69 27 20-5.6 41.5-8.5 62.8-8.5s42.8 2.9 62.8 8.5c0 0 48.1-33.6 69-27 13.7 34.7 5.2 61.4 2.6 67.9 16 17.7 25.8 31.5 25.8 58.9 0 96.5-58.9 104.2-114.8 110.5 9.2 7.9 17 22.9 17 46.4 0 33.7-.3 75.4-.3 83.6 0 6.5 4.6 14.4 17.3 12.1C428.2 457.8 496 362.9 496 252 496 113.3 383.5 8 244.8 8zM97.2 352.9c-1.3 1-1 3.3.7 5.2 1.6 1.6 3.9 2.3 5.2 1 1.3-1 1-3.3-.7-5.2-1.6-1.6-3.9-2.3-5.2-1zm-10.8-8.1c-.7 1.3.3 2.9 2.3 3.9 1.6 1 3.6.7 4.3-.7.7-1.3-.3-2.9-2.3-3.9-2-.6-3.6-.3-4.3.7zm32.4 35.6c-1.6 1.3-1 4.3 1.3 6.2 2.3 2.3 5.2 2.6 6.5 1 1.3-1.3.7-4.3-1.3-6.2-2.2-2.3-5.2-2.6-6.5-1zm-11.4-14.7c-1.6 1-1.6 3.6 0 5.9 1.6 2.3 4.3 3.3 5.6 2.3 1.6-1.3 1.6-3.9 0-6.2-1.4-2.3-4-3.3-5.6-2z"></path>
    </symbol>

    <!-- FontAwesome: far compass -->
    <symbol id="intro" viewBox="0 0 496 512"><path fill="currentColor" d="M347.94 129.86L203.6 195.83a31.938 31.938 0 0 0-15.77 15.77l-65.97 144.34c-7.61 16.65 9.54 33.81 26.2 26.2l144.34-65.97a31.938 31.938 0 0 0 15.77-15.77l65.97-144.34c7.61-16.66-9.54-33.81-26.2-26.2zm-77.36 148.72c-12.47 12.47-32.69 12.47-45.16 0-12.47-12.47-12.47-32.69 0-45.16 12.47-12.47 32.69-12.47 45.16 0 12.47 12.47 12.47 32.69 0 45.16zM248 8C111.03 8 0 119.03 0 256s111.03 248 248 248 248-111.03 248-248S384.97 8 248 8zm0 448c-110.28 0-200-89.72-200-200S137.72 56 248 56s200 89.72 200 200-89.72 200-200 200z"></path>
    </symbol>

    <!-- FontAwesome far clipboard -->
    <symbol id="checklist" viewBox="0 0 384 512">
      <path fill="currentColor" d="M336 64h-80c0-35.3-28.7-64-64-64s-64 28.7-64 64H48C21.5 64 0 85.5 0 112v352c0 26.5 21.5 48 48 48h288c26.5 0 48-21.5 48-48V112c0-26.5-21.5-48-48-48zM192 40c13.3 0 24 10.7 24 24s-10.7 24-24 24-24-10.7-24-24 10.7-24 24-24zm144 418c0 3.3-2.7 6-6 6H54c-3.3 0-6-2.7-6-6V118c0-3.3 2.7-6 6-6h42v36c0 6.6 5.4 12 12 12h168c6.6 0 12-5.4 12-12v-36h42c3.3 0 6 2.7 6 6z"></path>
    </symbol>

    <!-- guide FontAwesome far far file-alt -->
    <symbol id="guide" viewBox="0 0 384 512">
      <path fill="currentColor" d="M288 248v28c0 6.6-5.4 12-12 12H108c-6.6 0-12-5.4-12-12v-28c0-6.6 5.4-12 12-12h168c6.6 0 12 5.4 12 12zm-12 72H108c-6.6 0-12 5.4-12 12v28c0 6.6 5.4 12 12 12h168c6.6 0 12-5.4 12-12v-28c0-6.6-5.4-12-12-12zm108-188.1V464c0 26.5-21.5 48-48 48H48c-26.5 0-48-21.5-48-48V48C0 21.5 21.5 0 48 0h204.1C264.8 0 277 5.1 286 14.1L369.9 98c9 8.9 14.1 21.2 14.1 33.9zm-128-80V128h76.1L256 51.9zM336 464V176H232c-13.3 0-24-10.7-24-24V48H48v416h288z"></path>
    </symbol>

<!-- sdk FontAwesome far book-open -->
    <symbol  id="sdk" viewBox="0 0 640 512">
      <path fill="currentColor" d="M561.91 0C549.44 0 406.51 6.49 320 56.89 233.49 6.49 90.56 0 78.09 0 35.03 0 0 34.34 0 76.55v313.72c0 40.73 32.47 74.3 73.92 76.41 36.78 1.91 128.81 9.5 187.73 38.69 8.19 4.05 17.25 6.29 26.34 6.58v.05h64.02v-.05c9.09-.29 18.15-2.53 26.34-6.58 58.92-29.19 150.95-36.78 187.73-38.69C607.53 464.57 640 431 640 390.27V76.55C640 34.34 604.97 0 561.91 0zM296 438.15c0 11.09-10.96 18.91-21.33 14.96-64.53-24.54-153.96-32.07-198.31-34.38-15.9-.8-28.36-13.3-28.36-28.46V76.55C48 60.81 61.5 48 78.06 48c19.93.1 126.55 7.81 198.53 40.49 11.63 5.28 19.27 16.66 19.28 29.44L296 224v214.15zm296-47.88c0 15.16-12.46 27.66-28.36 28.47-44.35 2.3-133.78 9.83-198.31 34.38-10.37 3.94-21.33-3.87-21.33-14.96V224l.14-106.08c.02-12.78 7.65-24.15 19.28-29.44C435.4 55.81 542.02 48.1 561.94 48 578.5 48 592 60.81 592 76.55v313.72z">
    </path></symbol>

<!-- demo FontAwesome far brackets-curly -->
    <symbol id='demo' viewBox="0 0 576 512">
      <path fill="currentColor" d="M208 32h-88a56 56 0 0 0-56 56v77.49a40 40 0 0 1-11.72 28.29L7 239a24 24 0 0 0 0 34l45.24 45.24A40 40 0 0 1 64 346.52V424a56 56 0 0 0 56 56h88a16 16 0 0 0 16-16v-16a16 16 0 0 0-16-16h-88a8 8 0 0 1-8-8v-77.48a88.06 88.06 0 0 0-25.78-62.24L57.93 256l28.29-28.28A88.06 88.06 0 0 0 112 165.48V88a8 8 0 0 1 8-8h88a16 16 0 0 0 16-16V48a16 16 0 0 0-16-16zm361 207l-45.25-45.24A40.07 40.07 0 0 1 512 165.48V88a56 56 0 0 0-56-56h-88a16 16 0 0 0-16 16v16a16 16 0 0 0 16 16h88a8 8 0 0 1 8 8v77.48a88 88 0 0 0 25.78 62.24L518.06 256l-28.28 28.28A88 88 0 0 0 464 346.52V424a8 8 0 0 1-8 8h-88a16 16 0 0 0-16 16v16a16 16 0 0 0 16 16h88a56 56 0 0 0 56-56v-77.49a40 40 0 0 1 11.72-28.29L569 273a24 24 0 0 0 0-34z"></path>
    </symbol>

<!-- reference FontAwesome far bookmark -->
    <symbol id="reference" viewBox="0 0 384 512">
      <path fill="currentColor" d="M336 0H48C21.49 0 0 21.49 0 48v464l192-112 192 112V48c0-26.51-21.49-48-48-48zm0 428.43l-144-84-144 84V54a6 6 0 0 1 6-6h276c3.314 0 6 2.683 6 5.996V428.43z"></path>
    </symbol>


</defs>
</svg>
