<?xml version="1.0" encoding="utf-8"?>
<svg xmlns="http://www.w3.org/2000/svg">
<defs>


<symbol id="person" viewBox="0 0 512 512">
  <path fill="currentColor"  d="M256 288c79.53 0 144-64.47 144-144s-64.47-144-144-144c-79.52 0-144 64.47-144 144S176.5 288 256 288zM256 48c52.94 0 96 43.06 96 96c0 52.93-43.06 96-96 96c-52.93 0-96-43.07-96-96C160 91.06 203.1 48 256 48zM351.1 320H160c-88.36 0-160 71.63-160 160c0 17.67 14.33 32 31.1 32H480c17.67 0 31.1-14.33 31.1-32C512 391.6 440.4 320 351.1 320zM49.14 464c7.787-54.21 54.54-96 110.9-96h191.1c56.33 0 103.1 41.79 110.9 96H49.14z"/>
</symbol>

<!-- Plus, Regular: to expand entries in the navigation sidebar -->
  <symbol id="plus" viewBox="0 0 448 512">
    <path fill="currentColor" d="M432 256C432 269.3 421.3 280 408 280h-160v160c0 13.25-10.75 24.01-24 24.01S200 453.3 200 440v-160h-160c-13.25 0-24-10.74-24-23.99C16 242.8 26.75 232 40 232h160v-160c0-13.25 10.75-23.99 24-23.99S248 58.75 248 72v160h160C421.3 232 432 242.8 432 256z"/>
  </symbol>

<!-- Minus, Regular: to collapse entries in the navigation sidebar -->
  <symbol id="minus" viewBox="0 0 448 512">
    <path fill="currentColor" d="M432 256C432 269.3 421.3 280 408 280H40c-13.25 0-24-10.74-24-23.99C16 242.8 26.75 232 40 232h368C421.3 232 432 242.8 432 256z"/>
  </symbol>

<!-- Circle Check, Regular -->
  <symbol id="circle-check" viewBox="0 0 512 512">
    <path fill="currentColor" d="M243.8 339.8C232.9 350.7 215.1 350.7 204.2 339.8L140.2 275.8C129.3 264.9 129.3 247.1 140.2 236.2C151.1 225.3 168.9 225.3 179.8 236.2L224 280.4L332.2 172.2C343.1 161.3 360.9 161.3 371.8 172.2C382.7 183.1 382.7 200.9 371.8 211.8L243.8 339.8zM512 256C512 397.4 397.4 512 256 512C114.6 512 0 397.4 0 256C0 114.6 114.6 0 256 0C397.4 0 512 114.6 512 256zM256 48C141.1 48 48 141.1 48 256C48 370.9 141.1 464 256 464C370.9 464 464 370.9 464 256C464 141.1 370.9 48 256 48z"/>
  </symbol>


<!-- Circle Minus, Regular -->
  <symbol id="circle-minus" viewBox="0 0 512 512">
    <path fill="currentColor" d="M344 232C357.3 232 368 242.7 368 256C368 269.3 357.3 280 344 280H168C154.7 280 144 269.3 144 256C144 242.7 154.7 232 168 232H344zM512 256C512 397.4 397.4 512 256 512C114.6 512 0 397.4 0 256C0 114.6 114.6 0 256 0C397.4 0 512 114.6 512 256zM256 48C141.1 48 48 141.1 48 256C48 370.9 141.1 464 256 464C370.9 464 464 370.9 464 256C464 141.1 370.9 48 256 48z"/>
  </symbol>


  <symbol id="calendar-days" viewBox="0 0 448 512">
    <path fill="currentColor" d="M112 0C120.8 0 128 7.164 128 16V64H320V16C320 7.164 327.2 0 336 0C344.8 0 352 7.164 352 16V64H384C419.3 64 448 92.65 448 128V448C448 483.3 419.3 512 384 512H64C28.65 512 0 483.3 0 448V128C0 92.65 28.65 64 64 64H96V16C96 7.164 103.2 0 112 0zM416 192H312V264H416V192zM416 296H312V376H416V296zM416 408H312V480H384C401.7 480 416 465.7 416 448V408zM280 376V296H168V376H280zM168 480H280V408H168V480zM136 376V296H32V376H136zM32 408V448C32 465.7 46.33 480 64 480H136V408H32zM32 264H136V192H32V264zM168 264H280V192H168V264zM384 96H64C46.33 96 32 110.3 32 128V160H416V128C416 110.3 401.7 96 384 96z"/>
  </symbol>

  <symbol id="log" viewBox="0 0 640 512">
    <path fill="currentColor" d="M160 224H320V169.3C291.7 156.1 272 128.8 272 96C272 51.82 307.8 16 352 16C396.2 16 432 51.82 432 96C432 128.8 412.3 156.1 384 169.3V224H530.7L489.4 182.6C476.9 170.1 476.9 149.9 489.4 137.4C501.9 124.9 522.1 124.9 534.6 137.4L630.6 233.4C643.1 245.9 643.1 266.1 630.6 278.6L534.6 374.6C522.1 387.1 501.9 387.1 489.4 374.6C476.9 362.1 476.9 341.9 489.4 329.4L530.7 288H256V342.7C284.3 355 304 383.2 304 416C304 460.2 268.2 496 224 496C179.8 496 144 460.2 144 416C144 383.2 163.7 355 192 342.7V288H32C14.33 288 0 273.7 0 256C0 238.3 14.33 224 32 224H96V169.3C67.75 156.1 48 128.8 48 96C48 51.82 83.82 16 128 16C172.2 16 208 51.82 208 96C208 128.8 188.3 156.1 160 169.3V224zM128 120C141.3 120 152 109.3 152 96C152 82.75 141.3 72 128 72C114.7 72 104 82.75 104 96C104 109.3 114.7 120 128 120zM352 72C338.7 72 328 82.75 328 96C328 109.3 338.7 120 352 120C365.3 120 376 109.3 376 96C376 82.75 365.3 72 352 72zM224 440C237.3 440 248 429.3 248 416C248 402.7 237.3 392 224 392C210.7 392 200 402.7 200 416C200 429.3 210.7 440 224 440z"/>
  </symbol>

  <symbol id="bug" viewBox="0 0 512 512">
    <path fill="currentColor" d="M352 96V99.56C352 115.3 339.3 128 323.6 128H188.4C172.7 128 160 115.3 160 99.56V96C160 42.98 202.1 0 256 0C309 0 352 42.98 352 96zM39.03 103C48.4 93.66 63.6 93.66 72.97 103L145.4 175.5C161.3 165.7 179.1 160 200 160H312C332 160 350.7 165.7 366.6 175.5L439 103C448.4 93.66 463.6 93.66 472.1 103C482.3 112.4 482.3 127.6 472.1 136.1L400.5 209.4C410.3 225.3 416 243.1 416 264H488C501.3 264 512 274.7 512 288C512 301.3 501.3 312 488 312H416V320C416 347.2 409.2 372.8 397.2 395.3L472.1 471C482.3 480.4 482.3 495.6 472.1 504.1C463.6 514.3 448.4 514.3 439 504.1L368.2 434.1C339.3 462.5 299.7 480 256 480C212.3 480 172.7 462.5 143.8 434.1L72.97 504.1C63.6 514.3 48.4 514.3 39.03 504.1C29.66 495.6 29.66 480.4 39.03 471L114.8 395.3C102.8 372.8 96 347.2 96 320V312H24C10.75 312 0 301.3 0 288C0 274.7 10.75 264 24 264H96C96 243.1 101.7 225.3 111.5 209.4L39.03 136.1C29.66 127.6 29.66 112.4 39.03 103V103zM144 320C144 373.6 181.7 418.4 232 429.4V280C232 266.7 242.7 256 256 256C269.3 256 280 266.7 280 280V429.4C330.3 418.4 368 373.6 368 320V264C368 233.1 342.9 208 312 208H200C169.1 208 144 233.1 144 264V320z"/>
  </symbol>

  <symbol id="code-branch" viewBox="0 0 448 512">
     <path fill="currentColor" d="M160 80C160 115.8 136.5 146.1 104 156.3V255.1C124.1 240.9 148.1 232 176 232H272C311.8 232 344 199.8 344 160V156.3C311.5 146.1 288 115.8 288 80C288 35.82 323.8 0 368 0C412.2 0 448 35.82 448 80C448 115.8 424.5 146.1 392 156.3V160C392 226.3 338.3 280 272 280H176C136.2 280 104 312.2 104 352V355.7C136.5 365.9 160 396.2 160 432C160 476.2 124.2 512 80 512C35.82 512 0 476.2 0 432C0 396.2 23.54 365.9 56 355.7V156.3C23.54 146.1 0 115.8 0 80C0 35.82 35.82 0 80 0C124.2 0 160 35.82 160 80V80zM80 112C97.67 112 112 97.67 112 80C112 62.33 97.67 48 80 48C62.33 48 48 62.33 48 80C48 97.67 62.33 112 80 112zM368 48C350.3 48 336 62.33 336 80C336 97.67 350.3 112 368 112C385.7 112 400 97.67 400 80C400 62.33 385.7 48 368 48zM80 464C97.67 464 112 449.7 112 432C112 414.3 97.67 400 80 400C62.33 400 48 414.3 48 432C48 449.7 62.33 464 80 464z"/>
  </symbol>

  <symbol id="handshake" viewBox="0 0 640 512">
      <path fill="currentColor" d="M640 328c0 13.25-10.75 24-24 24l-129.8-.1582c-1.875 8.248-5.375 16.12-11 22.99l-26.12 32.24c-15.88 19.49-41.88 25.49-64 16.87c-13.5 16.62-30.62 23.99-48.88 23.99c-15 0-28.5-5.123-41-15.87c-31.88 21.87-74.75 21.24-105.6-3.875L105 351.8L24 352C10.75 352 0 341.3 0 328C0 314.7 10.75 304 24 304l99.75-.1426L221 391.8c16.12 13.12 41.38 10.5 55.25-6.623l15.62-19.12l36.88 31.49c2 1.625 5.5 2.75 9 2.375s6.75-2.123 9-4.873l30-36.49l23.88 19.49c3.5 2.748 8.5 2.123 11.25-1.25l26.12-32.24c2.764-3.41 2.24-8.414-1.168-11.18l-108.2-87.79l-8.25 7.496c-40.25 36.74-86.63 11.75-101.5-4.498c-26.62-28.99-25-74.35 4.375-101.2l38.75-35.49L226.1 111.1C209.7 111.1 193.2 118.1 181.2 131.3L137.9 175.8L24 176C10.75 176 0 165.3 0 152C0 138.7 10.75 128 24 128l93.1-.2109l26.39-26.38c24-23.99 56.55-37.47 90.5-37.47h167.5c33.88 0 66.38 13.43 90.38 37.36l26.45 26.37L616 128C629.3 128 640 138.7 640 152c0 13.25-10.75 24-24 24l-116.8-.3516l-48.65-46.19c-11.94-11.34-27.79-17.64-44.26-17.59l-58.1 .1738c-10.04 .0293-19.71 3.811-27.12 10.6l-65.38 60c-9.625 8.748-10.5 23.99-1.125 33.99c8.875 9.371 25.12 8.621 34.63 0l55.13-50.61c6.5-5.873 16.62-5.498 22.62 1l10.88 11.75c6 6.498 5.5 16.62-1 22.62l-12.5 11.37l102.8 83.35c2.75 2.375 5.375 4.998 7.625 7.748L616 304C629.3 304 640 314.7 640 328z"/>
  </symbol>


  <symbol id="seedling" viewBox="0 0 512 512">
    <path fill="currentColor" d="M436.4 32c-91 0-168.3 67.88-194.6 161.4C204.6 134.6 144 96 75.63 96L0 95.1V120C0 247.9 91.75 352 204.4 352H232v104C232 469.2 242.8 480 255.1 480S280 469.2 280 456V288h27.62C420.2 288 512 183.9 512 56V32H436.4zM204.4 304c-79.25 0-145.1-69.75-155.1-160h26.25c79.25 0 145.1 69.75 155.1 160H204.4zM307.6 240h-26.25c10-90.25 75.87-160 155.1-160h26.25C452.8 170.2 386.9 240 307.6 240z"/>
  </symbol>

    <symbol id="flask" viewBox="0 0 448 512">
      <path fill="currentColor" d="M437.2 403.5L319.1 215L319.1 48h7.998c13.25 0 23.1-10.75 23.1-24S341.2 0 327.1 0H120C106.8 0 96.01 10.75 96.01 24S106.8 48 120 48h7.998L128 215l-117.2 188.5C-18.48 450.6 15.27 512 70.89 512h306.2C432.7 512 466.5 450.5 437.2 403.5zM119.2 320l56.78-91.29V48h95.98v180.7L328.8 320H119.2z"/>
    </symbol>

    <symbol id="bars" viewBox="0 0 32 32">
        <path fill="currentColor" d="M4,10h24c1.104,0,2-0.896,2-2s-0.896-2-2-2H4C2.896,6,2,6.896,2,8S2.896,10,4,10z M28,14H4c-1.104,0-2,0.896-2,2  s0.896,2,2,2h24c1.104,0,2-0.896,2-2S29.104,14,28,14z M28,22H4c-1.104,0-2,0.896-2,2s0.896,2,2,2h24c1.104,0,2-0.896,2-2  S29.104,22,28,22z"></path>
    </symbol>

    <symbol id="chevron-up" viewBox="0 0 448 512">
        <path fill="currentColor" d="M4.465 366.475l7.07 7.071c4.686 4.686 12.284 4.686 16.971 0L224 178.053l195.494 195.493c4.686 4.686 12.284 4.686 16.971 0l7.07-7.071c4.686-4.686 4.686-12.284 0-16.97l-211.05-211.051c-4.686-4.686-12.284-4.686-16.971 0L4.465 349.505c-4.687 4.686-4.687 12.284 0 16.97z"></path>
    </symbol>

    <symbol id="chevron-down" viewBox="0 0 448 512">
        <path fill="currentColor" d="M443.5 162.6l-7.1-7.1c-4.7-4.7-12.3-4.7-17 0L224 351 28.5 155.5c-4.7-4.7-12.3-4.7-17 0l-7.1 7.1c-4.7 4.7-4.7 12.3 0 17l211 211.1c4.7 4.7 12.3 4.7 17 0l211-211.1c4.8-4.7 4.8-12.3.1-17z">
        </path>
    </symbol>

    <symbol id="chevron-right" viewBox="0 0 256 512">
        <path fill="currentColor" d="M17.525 36.465l-7.071 7.07c-4.686 4.686-4.686 12.284 0 16.971L205.947 256 10.454 451.494c-4.686 4.686-4.686 12.284 0 16.971l7.071 7.07c4.686 4.686 12.284 4.686 16.97 0l211.051-211.05c4.686-4.686 4.686-12.284 0-16.971L34.495 36.465c-4.686-4.687-12.284-4.687-16.97 0z"></path>
    </symbol>

    <symbol id="back" viewBox="0 0 256 512">
        <path fill="currentColor" d="M238.475 475.535l7.071-7.07c4.686-4.686 4.686-12.284 0-16.971L50.053 256 245.546 60.506c4.686-4.686 4.686-12.284 0-16.971l-7.071-7.07c-4.686-4.686-12.284-4.686-16.97 0L10.454 247.515c-4.686 4.686-4.686 12.284 0 16.971l211.051 211.05c4.686 4.686 12.284 4.686 16.97-.001z"></path>
    </symbol>

    <symbol id="gitter" viewBox="0 0 384 512">
        <path fill="currentColor" d="M66.4 322.5H16V0h50.4v322.5zM166.9 76.1h-50.4V512h50.4V76.1zm100.6 0h-50.4V512h50.4V76.1zM368 76h-50.4v247H368V76z"></path>
    </symbol>

    <symbol id="github" viewBox="0 0 580 400">
        <path fill="currentColor" d="M165.9 397.4c0 2-2.3 3.6-5.2 3.6-3.3.3-5.6-1.3-5.6-3.6 0-2 2.3-3.6 5.2-3.6 3-.3 5.6 1.3 5.6 3.6zm-31.1-4.5c-.7 2 1.3 4.3 4.3 4.9 2.6 1 5.6 0 6.2-2s-1.3-4.3-4.3-5.2c-2.6-.7-5.5.3-6.2 2.3zm44.2-1.7c-2.9.7-4.9 2.6-4.6 4.9.3 2 2.9 3.3 5.9 2.6 2.9-.7 4.9-2.6 4.6-4.6-.3-1.9-3-3.2-5.9-2.9zM244.8 8C106.1 8 0 113.3 0 252c0 110.9 69.8 205.8 169.5 239.2 12.8 2.3 17.3-5.6 17.3-12.1 0-6.2-.3-40.4-.3-61.4 0 0-70 15-84.7-29.8 0 0-11.4-29.1-27.8-36.6 0 0-22.9-15.7 1.6-15.4 0 0 24.9 2 38.6 25.8 21.9 38.6 58.6 27.5 72.9 20.9 2.3-16 8.8-27.1 16-33.7-55.9-6.2-112.3-14.3-112.3-110.5 0-27.5 7.6-41.3 23.6-58.9-2.6-6.5-11.1-33.3 2.6-67.9 20.9-6.5 69 27 69 27 20-5.6 41.5-8.5 62.8-8.5s42.8 2.9 62.8 8.5c0 0 48.1-33.6 69-27 13.7 34.7 5.2 61.4 2.6 67.9 16 17.7 25.8 31.5 25.8 58.9 0 96.5-58.9 104.2-114.8 110.5 9.2 7.9 17 22.9 17 46.4 0 33.7-.3 75.4-.3 83.6 0 6.5 4.6 14.4 17.3 12.1C428.2 457.8 496 362.9 496 252 496 113.3 383.5 8 244.8 8zM97.2 352.9c-1.3 1-1 3.3.7 5.2 1.6 1.6 3.9 2.3 5.2 1 1.3-1 1-3.3-.7-5.2-1.6-1.6-3.9-2.3-5.2-1zm-10.8-8.1c-.7 1.3.3 2.9 2.3 3.9 1.6 1 3.6.7 4.3-.7.7-1.3-.3-2.9-2.3-3.9-2-.6-3.6-.3-4.3.7zm32.4 35.6c-1.6 1.3-1 4.3 1.3 6.2 2.3 2.3 5.2 2.6 6.5 1 1.3-1.3.7-4.3-1.3-6.2-2.2-2.3-5.2-2.6-6.5-1zm-11.4-14.7c-1.6 1-1.6 3.6 0 5.9 1.6 2.3 4.3 3.3 5.6 2.3 1.6-1.3 1.6-3.9 0-6.2-1.4-2.3-4-3.3-5.6-2z"></path>
    </symbol>

<!-- reference FontAwesome far memo -->
    <symbol id="reference" viewBox="0 0 384 512">
      <path fill="currentColor" d="M264 224h-144C106.8 224 96 234.8 96 248S106.8 272 120 272h144C277.3 272 288 261.3 288 248S277.3 224 264 224zM168 320h-48C106.8 320 96 330.8 96 344s10.75 24 24 24h48c13.25 0 24-10.75 24-24S181.3 320 168 320zM264 128h-144C106.8 128 96 138.8 96 152S106.8 176 120 176h144C277.3 176 288 165.3 288 152S277.3 128 264 128zM320 0H64C28.65 0 0 28.65 0 64v384c0 35.35 28.65 64 64 64h256c35.35 0 64-28.65 64-64V64C384 28.65 355.3 0 320 0zM336 448c0 8.822-7.178 16-16 16H64c-8.822 0-16-7.178-16-16V64c0-8.822 7.178-16 16-16h256c8.822 0 16 7.178 16 16V448z"/>
    </symbol>


    <!-- FontAwesome: far compass -->
    <symbol id="intro" viewBox="0 0 496 512">
      <path fill="currentColor" d="M347.94 129.86L203.6 195.83a31.938 31.938 0 0 0-15.77 15.77l-65.97 144.34c-7.61 16.65 9.54 33.81 26.2 26.2l144.34-65.97a31.938 31.938 0 0 0 15.77-15.77l65.97-144.34c7.61-16.66-9.54-33.81-26.2-26.2zm-77.36 148.72c-12.47 12.47-32.69 12.47-45.16 0-12.47-12.47-12.47-32.69 0-45.16 12.47-12.47 32.69-12.47 45.16 0 12.47 12.47 12.47 32.69 0 45.16zM248 8C111.03 8 0 119.03 0 256s111.03 248 248 248 248-111.03 248-248S384.97 8 248 8zm0 448c-110.28 0-200-89.72-200-200S137.72 56 248 56s200 89.72 200 200-89.72 200-200 200z"></path>
    </symbol>

    <!-- FontAwesome far clipboard -->
    <symbol id="checklist" viewBox="0 0 384 512">
      <path fill="currentColor" d="M336 64h-80c0-35.3-28.7-64-64-64s-64 28.7-64 64H48C21.5 64 0 85.5 0 112v352c0 26.5 21.5 48 48 48h288c26.5 0 48-21.5 48-48V112c0-26.5-21.5-48-48-48zM192 40c13.3 0 24 10.7 24 24s-10.7 24-24 24-24-10.7-24-24 10.7-24 24-24zm144 418c0 3.3-2.7 6-6 6H54c-3.3 0-6-2.7-6-6V118c0-3.3 2.7-6 6-6h42v36c0 6.6 5.4 12 12 12h168c6.6 0 12-5.4 12-12v-36h42c3.3 0 6 2.7 6 6z"></path>
    </symbol>

    <!-- guide FontAwesome far far file-alt -->
    <symbol id="guide" viewBox="0 0 448 512">
<path fill="currentColor" d="M384 32H64.01C28.66 32 .0085 60.65 .0065 96L0 415.1C-.002 451.3 28.65 480 64 480h232.1c25.46 0 49.88-10.12 67.89-28.12l55.88-55.89C437.9 377.1 448 353.6 448 328.1V96C448 60.8 419.2 32 384 32zM52.69 427.3C50.94 425.6 48 421.8 48 416l.0195-319.1C48.02 87.18 55.2 80 64.02 80H384c8.674 0 16 7.328 16 16v192h-88C281.1 288 256 313.1 256 344v88H64C58.23 432 54.44 429.1 52.69 427.3zM330.1 417.9C322.9 425.1 313.8 429.6 304 431.2V344c0-4.406 3.594-8 8-8h87.23c-1.617 9.812-6.115 18.88-13.29 26.05L330.1 417.9z"/>
    </symbol>

<!-- sdk FontAwesome far book-open -->
    <symbol  id="sdk" viewBox="0 0 576 512">
        <path fill="currentColor"  d="M540.9 56.77C493.8 39.74 449.6 31.58 410.9 32.02C352.2 32.96 308.3 50 288 59.74C267.7 50 223.9 32.98 165.2 32.04C125.8 31.35 82.18 39.72 35.1 56.77C14.02 64.41 0 84.67 0 107.2v292.1c0 16.61 7.594 31.95 20.84 42.08c13.73 10.53 31.34 13.91 48.2 9.344c118.1-32 202 22.92 205.5 25.2C278.6 478.6 283.3 480 287.1 480s9.37-1.359 13.43-4.078c3.516-2.328 87.59-57.21 205.5-25.25c16.92 4.563 34.5 1.188 48.22-9.344C568.4 431.2 576 415.9 576 399.2V107.2C576 84.67 561.1 64.41 540.9 56.77zM264 416.8c-27.86-11.61-69.84-24.13-121.4-24.13c-26.39 0-55.28 3.281-86.08 11.61C53.19 405.3 50.84 403.9 50 403.2C48 401.7 48 399.8 48 399.2V107.2c0-2.297 1.516-4.531 3.594-5.282c40.95-14.8 79.61-22.36 112.8-21.84C211.3 80.78 246.8 93.75 264 101.5V416.8zM528 399.2c0 .5938 0 2.422-2 3.969c-.8438 .6407-3.141 2.063-6.516 1.109c-90.98-24.6-165.4-5.032-207.5 12.53v-315.3c17.2-7.782 52.69-20.74 99.59-21.47c32.69-.5157 71.88 7.047 112.8 21.84C526.5 102.6 528 104.9 528 107.2V399.2z"/>
    </symbol>

<!-- demo FontAwesome far brackets-curly -->
    <symbol id='demo' viewBox="0 0 576 512">
      <path fill="currentColor" d="M208 32h-88a56 56 0 0 0-56 56v77.49a40 40 0 0 1-11.72 28.29L7 239a24 24 0 0 0 0 34l45.24 45.24A40 40 0 0 1 64 346.52V424a56 56 0 0 0 56 56h88a16 16 0 0 0 16-16v-16a16 16 0 0 0-16-16h-88a8 8 0 0 1-8-8v-77.48a88.06 88.06 0 0 0-25.78-62.24L57.93 256l28.29-28.28A88.06 88.06 0 0 0 112 165.48V88a8 8 0 0 1 8-8h88a16 16 0 0 0 16-16V48a16 16 0 0 0-16-16zm361 207l-45.25-45.24A40.07 40.07 0 0 1 512 165.48V88a56 56 0 0 0-56-56h-88a16 16 0 0 0-16 16v16a16 16 0 0 0 16 16h88a8 8 0 0 1 8 8v77.48a88 88 0 0 0 25.78 62.24L518.06 256l-28.28 28.28A88 88 0 0 0 464 346.52V424a8 8 0 0 1-8 8h-88a16 16 0 0 0-16 16v16a16 16 0 0 0 16 16h88a56 56 0 0 0 56-56v-77.49a40 40 0 0 1 11.72-28.29L569 273a24 24 0 0 0 0-34z"></path>
    </symbol>



</defs>
</svg>
